Coordinates
version=1
nRows=19
nColumns=36
inDegrees=yes

Units are S.I. units (second, meters, Newtons, ...)
If the header above contains a line with 'inDegrees', this indicates whether rotational values are in degrees (yes) or radians (no).

endheader
time	pelvis_tilt	pelvis_list	pelvis_rotation	pelvis_tx	pelvis_ty	pelvis_tz	hip_flexion_r	hip_adduction_r	hip_rotation_r	knee_angle_r	knee_angle_r_beta	ankle_angle_r	subtalar_angle_r	mtp_angle_r	hip_flexion_l	hip_adduction_l	hip_rotation_l	knee_angle_l	knee_angle_l_beta	ankle_angle_l	subtalar_angle_l	mtp_angle_l	lumbar_extension	lumbar_bending	lumbar_rotation	arm_flex_r	arm_add_r	arm_rot_r	elbow_flex_r	pro_sup_r	arm_flex_l	arm_add_l	arm_rot_l	elbow_flex_l	pro_sup_l
      1.48750000	    -20.97348415	      1.10538033	      0.42501241	     -0.94447218	      1.10533091	     -0.08444512	     48.21527268	     -0.44340978	      5.17540744	     61.07166071	      1.06590156	     26.43069534	    -18.91510533	     -7.49999987	     46.79922075	     -1.54448338	     -0.42379476	     57.19325339	      0.99821058	     26.28655006	    -12.65590168	     -7.49999987	    -38.96322196	     -0.10976650	      1.38810719	     -4.24843100	     -5.51443262	     -1.86326367	     21.89190148	     65.24661211	      5.08310610	     -9.10475651	     12.29038420	     26.11639935	     59.71338310
      1.49166670	    -21.30331885	      1.00461089	      0.45944909	     -0.94675938	      1.10471637	     -0.08287414	     48.77655679	     -0.16262632	      5.21695351	     61.60841971	      1.07526977	     26.59199183	    -19.19203306	     -7.49999987	     47.35649326	     -1.74049046	     -0.24556229	     57.71341984	      1.00728920	     26.43673411	    -12.85140565	     -7.49999987	    -39.07868584	     -0.09645583	      1.35145819	     -3.33731638	     -5.57239381	     -1.80388373	     22.73745815	     65.00266437	      5.72458034	     -9.17091521	     12.18851848	     27.01530856	     59.80114622
      1.49583330	    -21.12931785	      0.97906398	      0.57139393	     -0.93981598	      1.10064530	     -0.08209946	     48.62921048	     -0.02435762	      5.18564136	     62.23424139	      1.08619242	     26.91633394	    -19.26869772	     -7.49999987	     47.32934116	     -1.91725998	     -0.17919667	     58.55312648	      1.02194484	     26.60692181	    -13.05111481	     -7.49999987	    -39.35613678	     -0.28112225	      1.36642675	     -2.60586284	     -5.38852469	     -1.73301723	     23.10729600	     65.04364899	      5.75264139	     -8.70113936	     12.31555892	     26.99755370	     59.87824283
      1.50000000	    -21.02969279	      0.84384663	      0.84982008	     -0.93771868	      1.09967635	     -0.08036984	     48.43076315	      0.17744387	      5.06673895	     62.70585614	      1.09442365	     27.53353879	    -19.26872729	     -7.49999987	     47.51013081	     -2.12698148	      0.01296660	     59.45901985	      1.03775567	     26.82369600	    -13.25945627	     -7.49999987	    -39.60848294	     -0.16317745	      1.14766669	     -1.88052505	     -5.55538485	     -1.67717458	     24.30260117	     64.92471866	      5.84009081	     -8.89277678	     12.44094492	     27.32981095	     60.18753501
      1.50416670	    -20.89266305	      0.86213550	      0.90838874	     -0.93210042	      1.09884435	     -0.08087833	     48.20116030	      0.22819342	      5.07102105	     63.24547434	      1.10384176	     27.69119286	    -19.27938457	     -7.49999987	     47.29520761	     -2.18586012	     -0.00434814	     60.04980025	      1.04806673	     26.82205764	    -13.41672565	     -7.49999987	    -39.63233047	     -0.29918042	      1.17796461	     -0.99618091	     -5.70902436	     -1.67923182	     24.68724493	     64.97787105	      6.30255197	     -8.67574172	     12.51776351	     27.37860680	     60.27187369
      1.50833330	    -20.23170990	      0.91425184	      0.99496842	     -0.92949786	      1.09617713	     -0.07957015	     47.40166022	      0.14309818	      4.93302838	     63.96550630	      1.11640869	     28.30502510	    -19.04732669	     -7.49999987	     46.53841195	     -2.18102583	     -0.05087909	     60.57728732	      1.05727312	     26.98891722	    -13.86902701	     -7.49999987	    -40.51060138	     -0.38303791	      1.11728347	     -0.35466959	     -5.93056140	     -1.52581424	     26.09759665	     64.92802086	      6.87097108	     -8.69025426	     12.80929028	     27.68229036	     60.79880616
      1.51250000	    -19.81946542	      1.00478784	      0.89572252	     -0.92687016	      1.09607410	     -0.07963788	     46.94028544	      0.14758691	      4.93039267	     64.64333232	      1.12823899	     28.66823642	    -18.83680918	     -7.49999987	     46.00683474	     -2.16266492	     -0.19074491	     60.86535070	      1.06230077	     27.37432896	    -13.56838458	     -7.49999987	    -40.94354721	     -0.54632031	      1.22771085	      0.57585840	     -6.29602386	     -1.08899738	     26.58640572	     65.30311838	      7.65312878	     -8.52587549	     13.40845161	     27.61807759	     61.52733935
      1.51666670	    -19.76946990	      1.17650327	      0.80018551	     -0.92404769	      1.08925732	     -0.07926377	     47.16264620	      0.08642837	      5.04286747	     65.78533177	      1.14817064	     29.23092532	    -18.50050686	     -7.49999987	     46.18322159	     -2.10865892	     -0.36504833	     61.71296913	      1.07709450	     27.82259165	    -13.52916225	     -7.49999987	    -41.13549365	     -0.81326197	      1.21281799	      1.31296347	     -6.53344175	     -1.09559602	     27.60590524	     65.37732026	      9.29568727	     -9.24544605	     12.62520786	     29.26392689	     61.86830538
      1.52083330	    -19.82179497	      1.27151161	      0.76888306	     -0.92277905	      1.08755404	     -0.07823318	     47.43198676	      0.09086975	      5.10130712	     66.65031448	      1.16326744	     29.86587289	    -18.10279748	     -7.49999987	     46.58685881	     -2.09944608	     -0.38179058	     62.56835477	      1.09202380	     28.03808475	    -13.66590770	     -7.49999987	    -41.10551902	     -0.91717768	      0.73893275	      2.63708919	     -6.77629507	     -0.24742761	     27.64298046	     71.36744617	     10.07510002	     -9.42519709	      8.68421396	     31.33793495	     70.26130862
      1.52500000	    -19.74092381	      1.30413794	      0.71174010	     -0.92017951	      1.08641090	     -0.07481596	     47.52612905	      0.26198249	      5.18535758	     67.37552168	      1.17592469	     30.03030443	    -18.14011885	     -7.49999987	     46.70431899	     -2.19959283	     -0.26244383	     63.25942336	      1.10408522	     28.13394891	    -13.79966334	     -7.49999987	    -41.22611826	     -1.03531015	      0.73872306	      3.54170006	     -6.67504235	     -0.18784845	     27.90923858	     71.39554088	     11.46568347	     -9.70781459	      8.54031811	     31.84402465	     70.26858570
      1.52916670	    -19.51425892	      1.48635240	      0.65842178	     -0.91580527	      1.08210976	     -0.07467448	     47.49357831	      0.30936859	      5.41633896	     68.33095133	      1.19260008	     30.98215060	    -17.46762757	     -7.49999987	     46.63554142	     -2.33627606	     -0.50202977	     64.23622668	      1.12113365	     28.34457500	    -14.83332213	     -7.49999987	    -41.33940206	     -1.42605635	      0.97247071	      3.86479722	     -6.85074664	      0.56802746	     28.39546743	     71.72808809	     12.10902912	     -9.87393688	      8.07417860	     34.02798625	     70.47743663
      1.53333330	    -19.19099620	      1.53758309	      0.61108094	     -0.90932026	      1.08203048	     -0.07335163	     46.84357602	      0.40172007	      5.48092573	     68.70422688	      1.19911497	     31.40586090	    -17.46120832	     -7.49999987	     46.11996821	     -2.51568075	     -0.58887261	     64.72286411	      1.12962708	     28.30060982	    -15.46039211	     -7.49999987	    -41.37954146	     -1.58256800	      0.37190986	      5.00537319	     -6.93277620	      2.61316340	     27.93983744	     72.87221082	     12.23492367	     -9.92302039	      6.53191245	     35.31408992	     71.59858751
      1.53750000	    -18.89151909	      1.58524841	      0.55755712	     -0.90653040	      1.07982161	     -0.07354585	     46.36654550	      0.46591945	      5.57555265	     69.17242941	      1.20728664	     31.85268236	    -17.45757827	     -7.49999987	     45.65155966	     -2.55877659	     -0.64164688	     65.06039175	      1.13551805	     28.63710034	    -15.59785540	     -7.49999987	    -41.48373494	     -1.79423394	      0.53515193	      5.50314812	     -6.94784325	      2.68514015	     28.25249776	     72.43985798	     12.81018340	     -9.77735215	      6.46824176	     36.23916880	     71.34160350
      1.54166670	    -18.78822797	      1.69793621	      0.39192436	     -0.90623451	      1.07947668	     -0.07513621	     46.39300024	      0.43279809	      5.75724885	     69.84015624	      1.21894068	     31.84595306	    -17.67881716	     -7.49999987	     45.41884041	     -2.42666780	     -0.76053013	     65.55037016	      1.14406979	     28.44050569	    -16.29920016	     -7.49999987	    -41.52662523	     -2.00523997	      0.47090228	      6.50140511	     -7.14161068	      3.02561954	     28.75219499	     71.63369488	     13.39102699	     -9.59377659	      6.43857251	     37.30424885	     70.70534296
      1.54583330	    -18.82663571	      1.63783683	      0.09049310	     -0.90592049	      1.08317570	     -0.07507556	     46.51047932	      0.58389475	      5.88996943	     70.02932398	      1.22224228	     31.49451718	    -17.79973548	     -7.49999987	     45.39275387	     -2.45255478	     -0.74867677	     65.88132712	      1.14984607	     28.06383851	    -17.12815780	     -7.49999987	    -41.68449420	     -2.04533019	      0.63072410	      7.92884349	     -7.56058408	      3.16952843	     29.75189657	     71.36927279	     14.26324873	     -9.38374820	      6.46092412	     38.37891889	     70.54655798
      1.55000000	    -18.82236134	      1.68968444	     -0.16630664	     -0.89676093	      1.07908093	     -0.08115377	     46.37681810	      0.34120098	      6.14091640	     70.47335495	      1.22999208	     31.23513132	    -17.70653290	     -7.49999987	     45.10195669	     -2.17669180	     -0.79442534	     66.41004450	      1.15907393	     27.85096659	    -17.14853771	     -7.49999987	    -41.58930860	     -1.82680937	      0.57594486	      9.32049649	     -7.94533807	      3.10601672	     30.27789311	     71.41758540	     14.99168202	     -8.82531039	      6.57483911	     38.75042569	     70.62599675
      1.55416670	    -18.32749496	      1.69167326	     -0.43053545	     -0.89602278	      1.07802626	     -0.07969777	     45.78742087	      0.26955514	      6.31305201	     70.76497908	      1.23508188	     30.82179741	    -18.15831901	     -7.49999987	     44.36108930	     -1.94083908	     -0.70913709	     66.68146569	      1.16381113	     27.52168066	    -18.08039573	     -7.49999987	    -42.45989855	     -1.70048277	      0.81871909	     10.74739390	     -8.32128141	      3.23719965	     31.25097759	     71.63417315	     16.03521738	     -8.37958059	      6.69465585	     39.77013925	     70.95559021
      1.55833330	    -18.21281505	      1.54756600	     -0.60279115	     -0.89466741	      1.07446043	     -0.07807572	     45.81071116	      0.44115194	      6.31729754	     71.46040700	      1.24721939	     31.08436008	    -18.07010232	     -7.49999987	     44.50640340	     -2.07857109	     -0.61855977	     67.66860599	      1.18103997	     27.76942580	    -18.23514188	     -7.49999987	    -42.59147185	     -1.46766317	      0.96180535	     11.94254259	     -8.52011664	      3.20650491	     32.49390059	     71.48467268	     16.81933868	     -8.06951227	      6.76711336	     40.80459811	     70.88509473
      1.56250000	    -17.93275085	      1.53278356	     -0.75253759	     -0.89209687	      1.07739095	     -0.07845512	     45.29573489	      0.54575476	      6.37749817	     71.57860584	      1.24928235	     30.89761510	    -18.20106978	     -7.49999987	     44.08497404	     -1.98218762	     -0.43113815	     67.77859297	      1.18295961	     27.70556307	    -18.28762885	     -7.49999987	    -43.16487807	     -1.30347707	      1.21647426	     13.31634542	     -8.83713266	      3.20278135	     33.38263361	     71.82678282	     17.89520953	     -7.75250797	      6.97544324	     41.93504139	     71.50232791
